<svg viewBox="0 0 400 400" xmlns="http://www.w3.org/2000/svg" xmlns:bx="https://boxy-svg.com">
  <defs>
    <bx:grid x="0" y="0" width="400" height="400"></bx:grid>
  </defs>
  <path style="fill: rgb(255, 255, 255);" d="M 0 125 C 0 50 50 0 100 0 C 162.5 0 200 50 200 75 C 200 50 237.5 0 300 0 C 350 0 375.357 42.46 380.393 50.568 C 384.75 57.584 379.572 61.023 379.308 70.652 C 379.03 80.784 386.724 93.097 385.223 106.472 C 383.775 119.376 371.983 118.845 369.936 104.968 C 368.455 94.926 375.308 83.99 375.741 71.065 C 376.369 52.292 369.724 22.722 353.12 44.785 C 337.383 65.696 340.448 110.023 341.797 132.035 C 343.601 161.481 358.503 223.74 351.667 242.88 C 346.421 257.567 334.639 255.924 329.617 242.804 C 323.73 227.424 335.288 165.638 336.424 131.247 C 337.101 110.76 343.227 15.533 315.693 36.078 C 297.34 49.772 298.83 98.228 301.516 125.579 C 303.666 147.474 310.836 159.043 308.191 174.754 C 305.644 189.882 288.832 191.265 286.22 174.782 C 284.175 161.878 290.077 147.708 293.833 125.614 C 297.514 103.961 295.389 47.741 274.929 63.585 C 250.276 82.675 251.376 141.712 257.825 188.98 C 261.923 219.014 256.124 217.143 254.343 236.687 C 250.428 279.643 270.985 309.735 261.809 332.457 C 257.338 343.527 247.531 344.368 243.049 332.294 C 234.456 309.148 251.062 284.858 250.349 236.511 C 250.122 221.116 244.273 215.483 247.805 188.867 C 254.26 140.226 251.495 113.955 232.622 133.791 C 219.189 147.91 214.796 169.417 221.696 206.317 C 223.895 218.078 225.001 232.08 221.859 242.3 C 215.249 263.802 194.997 262.281 208.699 302.404 C 217.551 328.324 197.286 334.009 201.086 351.584 C 207.87 382.96 200.422 374.282 200 400 C 100 300 0 225 0 125 Z"></path>
</svg>