<svg viewBox="0 0 400 400" xmlns="http://www.w3.org/2000/svg" xmlns:bx="https://boxy-svg.com">
  <path style="fill: var(--icon-fill, #fff);" 
    d="M 0 125
    C 0 50 50 0 100 0
    C 163 0 200 50 200 75
    C 200 50 238 0 300 0
    C 350 0 377 45 382 54
    C 386 61 388 65 390 72
    C 390 78 388 79 387 89
    C 386 95 386 113 386 118
    C 386 145 386 144 386 149
    C 386 156 387 162 386 167
    C 385 184 379 175 380 163
    C 381 147 380 138 380 126
    C 380 119 382 109 380 95
    C 379 89 376 75 376 71
    C 376 63 369 66 365 60
    C 361 53 359 38 353 45
    C 336 65 345 97 342 132
    C 340 154 340 223 341 240
    C 341 250 341 255 339 259
    C 338 263 333 260 333 251
    C 332 244 332 221 332 214
    C 332 204 335 186 333 180
    C 327 165 329 170 330 136
    C 331 124 342 99 338 74
    C 336 55 341 53 329 47
    C 323 45 327 32 324 25
    C 321 18 312 12 310 14
    C 308 18 309 31 308 42
    C 308 53 307 61 307 63
    C 305 73 307 85 306 95
    C 305 106 301 116 302 126
    C 304 148 304 137 303 150
    C 303 165 294 160 295 149
    C 295 139 294 130 292 109
    C 289 80 291 84 288 55
    C 287 48 289 38 289 31
    C 288 19 284 15 282 18
    C 281 19 280 25 280 31
    C 280 40 282 49 281 59
    C 281 77 276 86 278 109
    C 282 138 278 158 278 168
    C 278 171 277 186 277 196
    C 276 214 275 229 268 229
    C 264 230 266 212 266 195
    C 267 182 269 170 265 172
    C 259 174 265 110 262 87
    C 260 68 257 88 257 91
    C 257 110 253 112 254 147
    C 255 166 251 184 254 200
    C 255 206 253 296 252 338
    C 251 347 251 350 249 352
    C 246 356 247 343 248 320
    C 249 287 247 240 248 233
    C 249 213 246 181 248 147
    C 251 110 261 85 246 72
    C 242 69 238 79 234 74
    C 226 67 231 49 229 48
    C 227 47 223 117 221 147
    C 221 159 215 167 217 176
    C 219 185 218 204 214 198
    C 210 192 212 163 211 141
    C 210 123 209 113 206 115
    C 199 119 201 137 204 154
    C 207 166 196 189 199 203
    C 202 217 201 230 201 238
    C 200 251 207 256 207 265
    C 208 285 198 295 200 305
    C 205 332 202 334 200 351
    C 198 372 200 374 200 400
    C 100 300 0 225 0 125 Z"></path>
</svg>